<svg xmlns="http://www.w3.org/2000/svg" viewBox="0 0 192 192">
  <g fill="inherit" stroke="none" stroke-width="none" stroke-miterlimit="10" stroke-dasharray="" stroke-dashoffset="0" font-family="none" style="mix-blend-mode: normal">
    <path d="M0,192v-192h192v192z" fill="none" stroke="none" stroke-width="1"/>
    <g fill="inherit" stroke="none" stroke-width="1">
      <g>
        <path d="M108.24,-0.015c10.56,24.435 -37.89,39.525 -42.375,59.895c-4.14,18.69 28.755,40.425 28.77,40.425c-4.995,-7.74 -8.61,-14.13 -13.62,-26.175c-8.475,-20.37 51.585,-38.79 27.225,-74.145zM140.355,33.84c0,0 -42.42,2.685 -44.58,29.835c-0.96,12.09 11.145,18.54 11.505,27.345c0.27,7.17 -7.245,13.155 -7.245,13.155c0,0 13.635,-2.565 17.91,-13.53c4.725,-12.165 -9.165,-20.475 -7.77,-30.21c1.35,-9.315 30.18,-26.595 30.18,-26.595zM150.645,96.555c-4.44,-0.195 -9.375,1.275 -13.845,4.485c8.76,-1.875 16.17,3.48 16.17,9.66c0,13.92 -20.115,27.075 -20.115,27.075c0,0 31.14,-3.555 31.14,-26.415c0,-9.45 -5.97,-14.46 -13.35,-14.805zM73.665,96.585c0,0 -38.865,-0.525 -38.865,10.47c0,11.49 50.895,12.3 87.24,5.22c0,0 9.705,-6.645 12.285,-9.12c-23.82,4.86 -78.18,5.505 -78.18,1.305c0,-3.885 17.52,-7.875 17.52,-7.875zM64.275,117.975c-5.955,0 -14.85,4.605 -14.85,9.045c0,8.925 44.895,15.81 78.135,2.76l-11.505,-7.05c-22.53,7.215 -64.065,4.905 -51.78,-4.755zM69.81,137.94c-8.175,0 -13.47,5.04 -13.47,8.76c0,11.46 48.795,12.615 68.13,0.96l-12.285,-7.815c-14.445,6.105 -50.715,6.93 -42.375,-1.905zM42.585,148.32c-13.32,-0.27 -21.975,5.715 -21.975,10.68c-0.015,26.4 136.41,25.125 136.41,-1.86c0,-4.47 -5.28,-6.6 -7.185,-7.62c11.145,25.8 -111.555,23.805 -111.555,8.58c0,-3.465 9,-6.87 17.37,-5.235l-7.095,-4.035c-2.085,-0.315 -4.08,-0.48 -5.97,-0.51zM171.405,166.08c-20.745,19.65 -73.305,26.82 -126.165,14.685c52.845,21.615 125.895,9.45 126.165,-14.685z"/>
      </g>
    </g>
    <path d="M72.805,123.06v-54.12h46.39v54.12z" fill="inherit" stroke="#50e3c2" stroke-width="3" opacity="0"/>
  </g>
</svg>
